<?xml version="1.0" encoding="utf-8"?>
<!-- Generator: Adobe Illustrator 23.0.1, SVG Export Plug-In . SVG Version: 6.00 Build 0)  -->
<svg version="1.1" xmlns="http://www.w3.org/2000/svg" xmlns:xlink="http://www.w3.org/1999/xlink" x="0px" y="0px"
	 viewBox="0 0 1002 112" style="enable-background:new 0 0 1002 112;" xml:space="preserve">
<style type="text/css">
	.st0{display:none;}
	.st1{display:inline;stroke:#000000;stroke-miterlimit:10;}
	.st2{display:inline;fill:#19FF00;}
	.st3{fill:#19FF00;}
	.st4{stroke:#000000;stroke-miterlimit:10;}
	.st5{fill:#FFFFFF;stroke:#000000;stroke-miterlimit:10;}
	.st6{fill:none;stroke:#000000;stroke-miterlimit:10;}
</style>
<g id="Layer_5" class="st0">
	<rect class="st1" width="1005.1" height="104"/>
</g>
<g id="Layer_4">
</g>
<g id="Layer_3">
</g>
<g id="Layer_1" class="st0">
	
		<image style="display:inline;overflow:visible;" width="1000" height="563" xlink:href="60316855.jpg"  transform="matrix(1 0 0 1 -14.3605 -307.9893)">
	</image>
</g>
<g id="Layer_6" class="st0">
	<polygon class="st2" points="-4.5,3 71.5,41 98.5,41 61.5,92 99.5,92 121.5,82 261.5,82 273.5,62 288.5,76 283.5,82 353.5,82 
		341.5,71 346.5,62 367.5,81 516.5,81 533.5,65 558.5,101 599.5,48 629.5,48 606.5,78 677.5,77 687.5,64 712.5,104 730.5,80 
		821.5,80 813.5,88 861.5,87 940.5,50 893.5,50 904.5,35 946.5,35 993.5,8 	"/>
</g>
<g id="Layer_2">
	<polygon class="st3" points="0,11 76,49 103,49 66,100 104,100 126,90 266,90 278,70 293,84 288,90 358,90 346,79 351,70 372,89 
		521,89 538,73 563,109 604,56 634,56 611,86 682,85 692,72 717,112 735,88 826,88 818,96 866,95 945,58 898,58 909,43 951,43 
		998,16 	"/>
	<polygon class="st4" points="2.1,0.5 78.1,38.5 105.1,38.5 68.1,89.5 106.1,89.5 128.1,79.5 268.1,79.5 280.1,59.5 295.1,73.5 
		290.1,79.5 360.1,79.5 348.1,68.5 353.1,59.5 374.1,78.5 523.1,78.5 540.1,62.5 565.1,98.5 606.1,45.5 636.1,45.5 613.1,75.5 
		684.1,74.5 694.1,61.5 719.1,101.5 737.1,77.5 828.1,77.5 820.1,85.5 868.1,84.5 947.1,47.5 900.1,47.5 911.1,32.5 953.1,32.5 
		1000.1,5.5 	"/>
	<path class="st5" d="M125.6,26h-44l-26-14h125l-9,14h-22l-16,27h24l-52,23h-15C90.6,76,126.2,25.5,125.6,26z"/>
	<polygon class="st5" points="186.1,12.5 150.6,67 232.6,67 242.6,53 184.1,53 189.1,46.5 245.1,46.5 253.1,34.5 195.1,34.5 
		200.1,27.5 257.1,27.5 268.1,12.5 	"/>
	<path class="st5" d="M490.9,46.3l7.3-12.2h-58l5-7.6l57.3,0.5l8.7-14.5h-112l-41,19l13-19h-46l-41,19l13-19h-25l-35,55
		c0-0.4,25,0,25,0l13-20h7l23,20h30l13-20h8l23,20h99l8.3-13.8h-59.3l5-7.2L490.9,46.3z"/>
	<polygon class="st4" points="300.1,39.5 318.1,55.5 341.1,20.5 	"/>
	<polygon class="st4" points="374.1,39.5 398.1,61.5 429.1,14.5 	"/>
	<path class="st6" d="M629.1,26.5"/>
	<polygon class="st5" points="593.1,12.5 569.1,45.5 547.1,12.5 516.1,12.5 482.1,67.5 520.1,67.5 533.1,53.5 514.1,53.5 
		530.1,29.5 565.1,81.5 618.1,12.5 	"/>
	<polygon class="st5" points="747.1,12.5 723.1,45.5 701.1,12.5 670.1,12.5 628.1,68.5 674.1,67.5 687.1,53.5 668.1,53.5 
		684.1,29.5 719.1,81.5 772.1,12.5 	"/>
	<polygon class="st5" points="777.1,13.5 737.1,68 823.6,68 833.6,54 775.1,54 780.1,47.5 836.1,47.5 844.1,35.5 786.1,35.5 
		791.1,28.5 848.1,28.5 859.1,13.5 	"/>
	<polygon class="st5" points="853.1,27.5 863.1,13.5 969.1,13.5 944.1,27.5 899.1,27.5 882.1,54.5 908.1,54.5 854.1,77.5 
		840.1,77.5 874.1,27.5 	"/>
	<polygon class="st5" points="641.1,40.5 604.1,40.5 613.1,28.5 651.1,28.5 	"/>
</g>
</svg>
